<?xml version="1.0" encoding="UTF-8" standalone="no"?>
<svg
   xmlns:dc="http://purl.org/dc/elements/1.1/"
   xmlns:cc="http://creativecommons.org/ns#"
   xmlns:rdf="http://www.w3.org/1999/02/22-rdf-syntax-ns#"
   xmlns:svg="http://www.w3.org/2000/svg"
   xmlns="http://www.w3.org/2000/svg"
   height="100"
   width="100"
   id="svg8"
   xml:space="preserve"
   enable-background="new 0 0 100 100"
   viewBox="0 0 100 100"
   y="0px"
   x="0px"
   version="1.1"><metadata
     id="metadata14"><rdf:RDF><cc:Work
         rdf:about=""><dc:format>image/svg+xml</dc:format><dc:type
           rdf:resource="http://purl.org/dc/dcmitype/StillImage" /><dc:title></dc:title></cc:Work></rdf:RDF></metadata><defs
     id="defs12" /><path
     style="stroke-width:1.10724521"
     id="path2"
     d="M 94,83.91711 V 92 H 67.426116 V 86.795948 83.91711 c 0,-0.553622 0,-0.99652 0.110724,-1.439418 0,-0.221449 0,-0.442899 0.110725,-0.553623 0,-0.221449 0.110725,-0.442898 0.110725,-0.664347 0.775071,-3.764634 3.100286,-6.86492 6.311297,-8.747237 -1.882317,-1.771592 -3.100286,-4.318256 -3.100286,-7.197094 0,-5.204052 4.096807,-9.411583 9.190134,-9.743757 v 0 c 0.221449,0 0.332174,0 0.553623,0 0.442898,0 0.775072,0 1.21797,0.110724 0.110724,0 0.221449,0 0.332173,0 0.332174,0 0.664347,0.110725 0.996521,0.22145 0.110724,0 0.110724,0 0.221449,0 0.775072,0.221449 1.550143,0.553622 2.325215,0.99652 v 0 0 c 2.878837,1.660868 4.871878,4.871879 4.871878,8.415063 0,2.878838 -1.217969,5.314777 -3.100286,7.197094 C 91.342612,74.726975 94,78.934507 94,83.91711 Z M 31.772822,81.813344 c 0,-0.221449 -0.110725,-0.442898 -0.110725,-0.664347 -0.775072,-3.764633 -3.100286,-6.86492 -6.311297,-8.747236 1.882316,-1.771593 3.100286,-4.318257 3.100286,-7.197094 0,-5.204052 -4.096807,-9.411584 -9.190135,-9.743758 v 0 c -0.221449,0 -0.332173,0 -0.553622,0 -0.442899,0 -0.775072,0 -1.21797,0.110725 -0.110725,0 -0.221449,0 -0.332174,0 -0.332173,0 -0.664347,0.110724 -0.99652,0.221449 -0.110725,0 -0.110725,0 -0.221449,0 -0.775072,0.221449 -1.550144,0.553623 -2.325215,0.996521 v 0 0 c -2.878838,1.660867 -4.8718789,4.871878 -4.8718789,8.415063 0,2.878837 1.2179696,5.314777 3.1002869,7.197094 C 7.8563259,74.726975 5.1989375,78.934507 5.1989375,83.91711 V 92 H 31.772822 V 86.795948 83.91711 c 0,-0.553622 0,-0.99652 -0.110725,-1.439418 0.221449,-0.332174 0.221449,-0.442899 0.110725,-0.664348 z M 41.405855,23.3508 c 0.221449,0.332173 0.442898,0.664347 0.664347,0.885796 0.110724,0.110724 0.110724,0.110724 0.221449,0.221449 0.221449,0.332173 0.553622,0.664347 0.885796,0.885796 -3.986083,2.325215 -6.643471,6.532746 -6.643471,11.51535 V 44.94208 H 63.10786 v -8.082889 c 0,-4.539706 -2.214491,-8.415064 -5.646951,-10.851003 v 0 c -0.332173,-0.221449 -0.664347,-0.442898 -0.99652,-0.664347 0.332173,-0.332174 0.553622,-0.553623 0.885796,-0.885796 0.110724,-0.110725 0.110724,-0.110725 0.221449,-0.221449 0.221449,-0.332174 0.442898,-0.553623 0.664347,-0.885796 0,0 0,0 0,-0.110725 0.442898,-0.775072 0.775072,-1.550143 1.107245,-2.435939 v 0 0 c 0.221449,-0.775072 0.332174,-1.660868 0.332174,-2.546664 0,-5.425502 -4.428981,-9.743758 -9.743758,-9.743758 -5.425501,0 -9.743757,4.428981 -9.743757,9.743758 -0.221449,1.771592 0.221449,3.543184 1.21797,5.093328 0,-0.110725 0,-0.110725 0,0 z M 19.4824,52.139174 C 20.589645,41.952518 26.679494,33.316006 35.316006,28.665576 36.091078,27.226158 37.198323,25.897463 38.416293,24.679494 37.86267,23.793698 37.419772,22.797177 37.198323,21.689932 24.243554,26.561811 14.83197,38.630783 13.83545,53.02497 c 1.550143,-0.664347 3.211011,-0.996521 4.871879,-0.996521 0.221449,0.110725 0.442898,0.110725 0.775071,0.110725 z m 15.722882,30.117069 c 0,0.553622 0.110724,1.107245 0.110724,1.660867 v 4.539705 c 4.428981,1.882317 9.30086,2.989562 14.394187,2.989562 5.093328,0 9.965207,-1.107245 14.394187,-2.989562 V 83.91711 c 0,-0.553622 0,-1.107245 0.110725,-1.660867 -4.318256,2.325214 -9.190135,3.653909 -14.504912,3.653909 -5.314777,0 -10.186655,-1.328695 -14.504911,-3.653909 z M 79.937986,52.139174 c 0.221449,0 0.442898,0 0.775072,0 1.771592,0 3.43246,0.332173 4.871879,0.996521 -0.885796,-14.394188 -10.408105,-26.46316 -23.362873,-31.335039 -0.332174,0.996521 -0.664347,1.993042 -1.21797,2.989562 1.21797,1.107245 2.325215,2.546664 3.100286,3.986083 8.636513,4.539705 14.726361,13.286942 15.833606,23.362873 z" /></svg>
