<?xml version="1.0" encoding="UTF-8" standalone="no"?>
<svg
   xmlns:dc="http://purl.org/dc/elements/1.1/"
   xmlns:cc="http://creativecommons.org/ns#"
   xmlns:rdf="http://www.w3.org/1999/02/22-rdf-syntax-ns#"
   xmlns:svg="http://www.w3.org/2000/svg"
   xmlns="http://www.w3.org/2000/svg"
   height="100"
   width="100"
   id="svg22"
   xml:space="preserve"
   viewBox="0 0 100 100"
   y="0px"
   x="0px"
   version="1.1"><metadata
     id="metadata28"><rdf:RDF><cc:Work
         rdf:about=""><dc:format>image/svg+xml</dc:format><dc:type
           rdf:resource="http://purl.org/dc/dcmitype/StillImage" /><dc:title></dc:title></cc:Work></rdf:RDF></metadata><defs
     id="defs26" /><style
     id="style2"
     type="text/css">
	.st0{fill:none;}
</style><g
     transform="translate(0,26)"
     id="g37"><path
       d="m 89.5,70 h -79 C 7.5,70 5,67.6 5,64.5 v -79 c 0,-3.1 2.4,-5.5 5.5,-5.5 h 79.1 c 3,0 5.5,2.4 5.5,5.5 V 64.6 C 95,67.6 92.6,70 89.5,70 Z m -79,-86.4 c -1,0 -1.8,0.8 -1.8,1.8 v 79.1 c 0,1 0.8,1.8 1.8,1.8 h 79.1 c 1,0 1.8,-0.8 1.8,-1.8 v -79 c 0,-1 -0.8,-1.8 -1.8,-1.8 H 10.5 Z"
       id="path4" /><path
       d="m 89.5,-17.8 h -79 c -2,0 -3.6,1.6 -3.6,3.6 v 5 c 0,2 1.6,3.6 3.6,3.6 h 79.1 c 2,0 3.6,-1.6 3.6,-3.6 v -5 c 0,-2 -1.7,-3.6 -3.7,-3.6 z m -75.9,7.9 c -1,0 -1.8,-0.8 -1.8,-1.8 0,-1 0.8,-1.8 1.8,-1.8 1,0 1.8,0.8 1.8,1.8 0.1,1 -0.8,1.8 -1.8,1.8 z m 5.5,0 c -1,0 -1.8,-0.8 -1.8,-1.8 0,-1 0.8,-1.8 1.8,-1.8 1,0 1.8,0.8 1.8,1.8 0,1 -0.8,1.8 -1.8,1.8 z m 5.4,0 c -1,0 -1.8,-0.8 -1.8,-1.8 0,-1 0.8,-1.8 1.8,-1.8 1,0 1.8,0.8 1.8,1.8 0.1,1 -0.8,1.8 -1.8,1.8 z"
       id="path6" /><path
       d="M 85.4,24.1 H 14.6 c -0.6,0 -1,-0.4 -1,-1 V 0.5 c 0,-0.6 0.4,-1 1,-1 h 70.7 c 0.6,0 1,0.4 1,1 V 23 c 0.1,0.6 -0.4,1.1 -0.9,1.1 z"
       id="path8" /><g
       id="g14"
       transform="translate(0,-25)"><path
         d="M 49,67.7 H 14.6 c -0.6,0 -1,-0.4 -1,-1 V 51.9 c 0,-0.6 0.4,-1 1,-1 H 49 c 0.6,0 1,0.4 1,1 v 14.7 c 0,0.6 -0.4,1.1 -1,1.1 z"
         id="path10" /><path
         d="M 49,86.4 H 14.6 c -0.6,0 -1,-0.4 -1,-1 V 70.6 c 0,-0.6 0.4,-1 1,-1 H 49 c 0.6,0 1,0.4 1,1 v 14.7 c 0,0.6 -0.4,1.1 -1,1.1 z"
         id="path12" /></g><path
       d="M 85.4,61.4 H 52.8 c -0.6,0 -1,-0.4 -1,-1 V 26.9 c 0,-0.6 0.4,-1 1,-1 h 32.5 c 0.6,0 1,0.4 1,1 v 33.5 c 0.1,0.5 -0.4,1 -0.9,1 z"
       id="path16" /></g></svg>
