<?xml version="1.0" encoding="UTF-8" standalone="no"?>
<svg
   xmlns:dc="http://purl.org/dc/elements/1.1/"
   xmlns:cc="http://creativecommons.org/ns#"
   xmlns:rdf="http://www.w3.org/1999/02/22-rdf-syntax-ns#"
   xmlns:svg="http://www.w3.org/2000/svg"
   xmlns="http://www.w3.org/2000/svg"
   height="100"
   width="100"
   id="svg8"
   xml:space="preserve"
   enable-background="new 0 0 100 100"
   viewBox="0 0 100 100"
   y="0px"
   x="0px"
   version="1.1"><metadata
     id="metadata14"><rdf:RDF><cc:Work
         rdf:about=""><dc:format>image/svg+xml</dc:format><dc:type
           rdf:resource="http://purl.org/dc/dcmitype/StillImage" /><dc:title></dc:title></cc:Work></rdf:RDF></metadata><defs
     id="defs12" /><path
     style="stroke-width:1.03654313"
     id="path2"
     d="M 93.612637,7.2889033 H 56.952179 c -1.858522,0 -3.357363,1.499878 -3.357363,3.3573637 v 18.280474 h -2.619345 v -8.328624 c 0,-1.812914 -1.466708,-3.291024 -3.278586,-3.291024 h -8.507946 c -1.81395,0 -3.279622,1.47811 -3.279622,3.291024 v 8.328624 H 17.404948 c -3.773017,0 -6.840148,3.850758 -6.840148,8.618857 v 26.763544 l -0.11091,0.369009 -2.261737,6.951058 -2.3612453,7.310739 -1.633592,5.025161 C 2.8197499,88.241886 4.6772352,91.734 8.338306,91.734 h 64.420119 c 3.649669,0 5.507154,-3.492114 4.129588,-7.768891 l -1.62219,-5.025161 -2.372647,-7.310739 -2.262774,-6.951058 -0.11091,-0.369009 v -2.306309 h 23.093145 c 1.858522,0 3.357363,-1.499878 3.357363,-3.357363 V 10.646267 C 96.971,8.7887813 95.471159,7.2889033 93.612637,7.2889033 Z M 37.553274,19.210186 H 49.340843 V 35.76689 H 37.553274 Z m 11.788605,17.506177 v 1.287387 h -2.42862 v -1.287387 z m -3.123104,0 v 1.287387 h -2.40789 v -1.287387 z m -3.124141,0 V 38.00375 H 40.68778 v -1.287387 z m -3.100301,0 V 38.00375 H 37.577115 V 36.716363 Z M 15.300766,33.370402 h 20.608551 v 3.883927 c 0,1.825352 1.465672,3.292061 3.279622,3.292061 h 8.507946 c 1.811878,0 3.278586,-1.466709 3.278586,-3.292061 v -3.883927 h 2.619345 v 25.276104 c 0,1.857486 1.498841,3.357364 3.357363,3.357364 h 8.832384 v 1.355798 H 15.300766 Z m 47.002049,38.506541 c 0,0.571135 -0.604305,1.040689 -1.34336,1.040689 h -1.824316 c -0.380412,0 -0.716252,-0.111946 -0.963985,-0.30267 -0.244625,-0.189688 -0.390777,-0.447787 -0.390777,-0.738019 0,-0.571135 0.604305,-1.030324 1.354762,-1.030324 h 1.824316 c 0.739055,0 1.34336,0.459189 1.34336,1.030324 z m -5.752815,0 c 0,0.571135 -0.604304,1.040689 -1.34336,1.040689 h -1.825352 c -0.380412,0 -0.715215,-0.111946 -0.961912,-0.30267 -0.236332,-0.189688 -0.391814,-0.447787 -0.391814,-0.738019 0,-0.571135 0.604305,-1.030324 1.353726,-1.030324 h 1.825352 c 0.739056,0 1.34336,0.459189 1.34336,1.030324 z m -8.060159,3.144872 h 2.026442 c 0.828198,0 1.511279,0.525527 1.511279,1.186842 0,0.661314 -0.683081,1.198244 -1.511279,1.198244 h -2.026442 c -0.412544,0 -0.783627,-0.134751 -1.062457,-0.348279 -0.269501,-0.222857 -0.437421,-0.525527 -0.437421,-0.849965 0,-0.661315 0.67168,-1.186842 1.499878,-1.186842 z m -1.825353,-2.406853 c -0.244624,-0.189688 -0.390777,-0.447787 -0.390777,-0.738019 0,-0.571135 0.604305,-1.030324 1.353726,-1.030324 h 1.81395 c 0.750458,0 1.354762,0.459189 1.354762,1.030324 0,0.571135 -0.604304,1.040689 -1.354762,1.040689 h -1.81395 c -0.379375,0 -0.714178,-0.111946 -0.962949,-0.30267 z m -4.577374,2.406853 h 2.037844 c 0.828198,0 1.498841,0.525527 1.498841,1.186842 0,0.661314 -0.670643,1.198244 -1.498841,1.198244 h -2.037844 c -0.414618,0 -0.784663,-0.134751 -1.06453,-0.348279 -0.266392,-0.222857 -0.436385,-0.525527 -0.436385,-0.849965 0,-0.661315 0.673753,-1.186842 1.500915,-1.186842 z m -1.566217,-3.144872 c 0,-0.571135 0.604305,-1.030324 1.354762,-1.030324 h 1.81395 c 0.750458,0 1.365128,0.459189 1.365128,1.030324 0,0.571135 -0.615707,1.040689 -1.365128,1.040689 h -1.81395 c -0.380411,0 -0.716251,-0.111946 -0.963985,-0.30267 -0.235295,-0.189688 -0.390777,-0.447787 -0.390777,-0.738019 z m -2.576846,1.040689 h -1.824316 c -0.380411,0 -0.715215,-0.111946 -0.961912,-0.30267 -0.246697,-0.189688 -0.391813,-0.447787 -0.391813,-0.738019 0,-0.571135 0.604304,-1.030324 1.353725,-1.030324 h 1.824316 c 0.740092,0 1.344396,0.459189 1.344396,1.030324 0,0.571135 -0.604304,1.040689 -1.344396,1.040689 z m 1.278057,3.291025 c 0,0.661314 -0.671679,1.198244 -1.499877,1.198244 h -2.026442 c -0.424983,0 -0.795029,-0.134751 -1.063494,-0.348279 -0.267428,-0.222857 -0.44675,-0.525527 -0.44675,-0.849965 0,-0.661315 0.681009,-1.186842 1.510244,-1.186842 h 2.026442 c 0.827161,0 1.499877,0.525527 1.499877,1.186842 z m -7.040201,-3.291025 h -1.81395 c -0.369009,0 -0.715215,-0.111946 -0.963985,-0.30267 -0.244624,-0.189688 -0.390777,-0.447787 -0.390777,-0.738019 0,-0.571135 0.604305,-1.030324 1.354762,-1.030324 h 1.81395 c 0.749421,0 1.353726,0.459189 1.353726,1.030324 0,0.571135 -0.605341,1.040689 -1.353726,1.040689 z m 0.637474,3.291025 c 0,0.661314 -0.671679,1.198244 -1.500914,1.198244 h -2.025405 c -0.413581,0 -0.793992,-0.134751 -1.062457,-0.348279 -0.269501,-0.222857 -0.436385,-0.525527 -0.436385,-0.849965 0,-0.661315 0.670644,-1.186842 1.498842,-1.186842 h 2.025405 c 0.829235,0 1.500914,0.525527 1.500914,1.186842 z m -5.036563,-4.331714 c 0,0.571135 -0.604304,1.040689 -1.344396,1.040689 h -1.824316 c -0.381448,0 -0.716251,-0.111946 -0.963985,-0.30267 -0.235295,-0.189688 -0.390777,-0.447787 -0.390777,-0.738019 0,-0.571135 0.604305,-1.030324 1.354762,-1.030324 h 1.824316 c 0.740092,0 1.344396,0.459189 1.344396,1.030324 z m -5.754887,0 c 0,0.571135 -0.604305,1.040689 -1.344397,1.040689 h -1.824316 c -0.380411,0 -0.715214,-0.111946 -0.961912,-0.30267 -0.235295,-0.189688 -0.391813,-0.447787 -0.391813,-0.738019 0,-0.571135 0.604305,-1.030324 1.353725,-1.030324 h 1.824316 c 0.740092,0 1.344397,0.459189 1.344397,1.030324 z M 16.10616,82.286946 h -2.260701 c -0.458152,0 -0.873806,-0.16792 -1.17544,-0.448823 -0.314072,-0.268465 -0.493394,-0.637474 -0.493394,-1.052092 0,-0.8396 0.749421,-1.51128 1.667798,-1.51128 h 2.2607 c 0.928743,0 1.667798,0.67168 1.667798,1.51128 0.001,0.830271 -0.736982,1.500915 -1.666761,1.500915 z m 0.380411,-4.880045 c -0.412544,0 -0.795028,-0.134751 -1.06142,-0.348279 -0.269501,-0.222857 -0.437421,-0.525527 -0.437421,-0.849965 0,-0.661315 0.670643,-1.186842 1.498841,-1.186842 h 2.026442 c 0.8396,0 1.510243,0.525527 1.510243,1.186842 0,0.661314 -0.670643,1.198244 -1.510243,1.198244 z m 6.739604,4.880045 H 20.97584 c -0.459189,0 -0.884172,-0.16792 -1.187879,-0.448823 -0.300597,-0.268465 -0.492358,-0.637474 -0.492358,-1.052092 0,-0.8396 0.750457,-1.51128 1.6792,-1.51128 h 2.250335 c 0.928743,0 1.678164,0.67168 1.678164,1.51128 0.001,0.830271 -0.747348,1.500915 -1.677127,1.500915 z m 1.689565,-4.880045 h -2.024369 c -0.414617,0 -0.796065,-0.134751 -1.06453,-0.348279 -0.269501,-0.222857 -0.436384,-0.525527 -0.436384,-0.849965 0,-0.661315 0.67168,-1.186842 1.500914,-1.186842 h 2.024369 c 0.840637,0 1.512316,0.525527 1.512316,1.186842 0,0.661314 -0.671679,1.198244 -1.512316,1.198244 z m 26.799823,4.880045 H 28.093781 c -0.458152,0 -0.872769,-0.16792 -1.185805,-0.448823 -0.302671,-0.268465 -0.493395,-0.648876 -0.493395,-1.052092 0,-0.8396 0.749421,-1.51128 1.678164,-1.51128 H 51.71349 c 0.928743,0 1.678163,0.67168 1.678163,1.51128 0.0021,0.830271 -0.747347,1.500915 -1.67609,1.500915 z m 2.114548,-5.228324 c -0.269501,-0.222857 -0.436385,-0.525527 -0.436385,-0.849965 0,-0.661315 0.67168,-1.186842 1.499878,-1.186842 h 2.024369 c 0.830271,0 1.512316,0.525527 1.512316,1.186842 0,0.661314 -0.682045,1.198244 -1.512316,1.198244 h -2.024369 c -0.414617,0 -0.796065,-0.134751 -1.063493,-0.348279 z m 5.014796,5.228324 h -2.262774 c -0.458152,0 -0.885208,-0.16792 -1.185805,-0.448823 -0.303707,-0.268465 -0.493395,-0.637474 -0.493395,-1.052092 0,-0.8396 0.760823,-1.51128 1.678163,-1.51128 h 2.262774 c 0.917341,0 1.666762,0.67168 1.666762,1.51128 0.0021,0.830271 -0.748385,1.500915 -1.665725,1.500915 z m 1.386894,-5.228324 c -0.279866,-0.222857 -0.44675,-0.525527 -0.44675,-0.849965 0,-0.661315 0.670644,-1.186842 1.510244,-1.186842 h 2.026442 c 0.828197,0 1.498841,0.525527 1.498841,1.186842 0,0.661314 -0.670644,1.198244 -1.498841,1.198244 h -2.026442 c -0.413581,0 -0.793992,-0.134751 -1.063494,-0.348279 z m 5.732084,5.228324 h -2.260701 c -0.458152,0 -0.873805,-0.16792 -1.17544,-0.448823 -0.314072,-0.268465 -0.493394,-0.637474 -0.493394,-1.052092 0,-0.8396 0.750457,-1.51128 1.667798,-1.51128 h 2.2607 c 0.928743,0 1.667798,0.67168 1.667798,1.51128 0.001,0.830271 -0.738018,1.500915 -1.666761,1.500915 z m 9.314377,-22.376894 c -1.130869,0 -2.060648,-0.928742 -2.060648,-2.058574 0,-1.142271 0.929779,-2.060648 2.060648,-2.060648 1.140197,0 2.06894,0.919414 2.06894,2.060648 0,1.129832 -0.928743,2.058574 -2.06894,2.058574 z M 92.381223,54.392533 H 58.183592 V 11.296179 h 34.197631 z" /></svg>
