<?xml version="1.0" encoding="UTF-8" standalone="no"?>
<svg
   xmlns:dc="http://purl.org/dc/elements/1.1/"
   xmlns:cc="http://creativecommons.org/ns#"
   xmlns:rdf="http://www.w3.org/1999/02/22-rdf-syntax-ns#"
   xmlns:svg="http://www.w3.org/2000/svg"
   xmlns="http://www.w3.org/2000/svg"
   height="100"
   width="100"
   id="svg8"
   xml:space="preserve"
   enable-background="new 0 0 89.984 89.984"
   viewBox="0 0 99.999999 99.999997"
   y="0px"
   x="0px"
   version="1.1"><metadata
     id="metadata14"><rdf:RDF><cc:Work
         rdf:about=""><dc:format>image/svg+xml</dc:format><dc:type
           rdf:resource="http://purl.org/dc/dcmitype/StillImage" /><dc:title></dc:title></cc:Work></rdf:RDF></metadata><defs
     id="defs12" /><path
     style="stroke-width:1.05251849"
     id="path2"
     d="m 97.984,50.149085 -0.04315,-0.04421 c 0,-26.151927 -21.156675,-47.3107069 -47.311759,-47.3107069 -26.151928,0 -47.3549129,21.2019329 -47.3549129,47.3538599 0,26.155085 21.2029849,47.355965 47.3549129,47.355965 26.144559,0 47.340177,-21.185092 47.354912,-47.328599 0,0.136827 0,-0.02631 0,-0.02631 z M 62.524652,20.108101 h -3.324906 l -4.296381,4.323746 h -2.826012 v -3.794329 l 1.665084,-1.658769 v -3.133347 h -2.299753 v -1.66298 h 1.797702 l 1.828225,-1.965052 h 10.419933 l 2.458683,2.466051 z m 3.29754,0.695715 v 1.832435 H 61.861565 V 20.803816 Z M 33.643544,79.532244 V 72.105673 L 30.129185,68.592366 V 67.410388 L 27.284227,64.56543 v -4.539512 h 1.067254 V 56.589445 L 18.005224,46.244241 v -6.717173 h -0.948319 v 3.438578 H 15.873874 V 35.54118 l 2.486049,-2.488153 v -1.854538 l 2.250284,-2.253442 V 22.03842 h -4.027988 v -0.945161 l 3.517517,-3.517517 h 18.121211 l 2.25239,-2.251337 1.684029,0.07052 -1.995575,2.115562 1.166191,1.160928 0.995682,-0.997788 0.99884,0.997788 -2.630244,2.631296 h -3.160713 l -3.29754,3.290173 2.796541,2.799699 5.292064,-4.925787 4.958414,4.790012 -6.288798,6.290903 -3.629084,0.663087 -6.756116,6.758221 v 2.662872 h -1.666137 v -2.493416 h -4.954204 l -4.12903,4.126925 2.659714,2.663924 1.137772,-1.135667 -0.866222,-0.864118 h 2.524992 v 2.161873 l -1.327226,1.331436 h 2.128192 v 3.460681 h 1.050414 l 1.608248,1.61351 2.02294,-2.020835 h 4.146923 l 3.995361,3.993255 h 0.943056 l 7.97388,7.97809 h 1.423005 v 2.011363 l -2.487101,2.489207 v 4.344796 l -2.804962,2.803909 v 2.486049 l -3.749071,3.750123 v 8.730641 H 39.289253 L 35.061286,86.835669 V 80.954196 Z M 43.6551,17.174732 v -0.332595 h 4.460573 v 3.461733 l -2.627086,2.632349 -2.134507,-2.132403 1.965052,-1.966104 z m 5.124713,-1.99347 h -3.128085 l 1.631403,-1.632456 h 1.662979 l 0.666245,-0.665192 h -1.330384 l 1.163033,-1.167243 h 2.795489 z m 37.663322,28.800064 v 6.024616 l 5.907786,5.42468 h 2.955472 v 3.683815 l -5.661497,5.66255 v 6.27722 L 86.19895,74.4991 v 2.957577 l -4.920524,4.923682 h -5.538352 v -4.80159 L 72.536208,74.379113 V 61.704685 l -2.826013,-2.828117 h -7.13818 l -3.944839,-3.944839 v -6.766642 l 8.863258,-8.863258 h 5.289958 l 2.702867,2.680764 h 11.32931 v -3.287015 h -4.557405 l 2.345011,-2.343959 h 5.906734 l -2.710236,-2.707077 h -3.201761 l -4.060616,4.059564 -4.182709,-4.177446 -0.611513,0.613618 2.334486,2.335539 -0.984105,0.980947 -3.073354,-3.071249 h -3.079669 l -2.57867,2.58288 v 1.598776 H 65.524329 L 64.54233,37.583066 V 35.12754 h 2.333433 L 68.97238,33.025661 68.234565,32.291003 V 31.42899 h 1.947159 l 2.109247,-2.106089 h 4.800537 l 3.559617,-3.557513 -1.714552,-1.714552 1.478788,-1.480894 v -1.466158 l -2.942842,2.945999 1.467211,1.469316 -1.848222,1.849275 -2.089249,-2.090302 h -2.098722 v -1.350381 h 1.239866 l 5.164709,-5.169971 h 3.818537 l 1.84717,1.84296 h 0.58941 c 0.255762,0.303125 0.510472,0.607303 0.762024,0.916744 v 0.312598 h -2.586038 l 1.598775,1.599828 h 2.442896 c 4.55109,6.290903 7.549715,13.77852 8.415938,21.908172 H 95.796867 L 93.948644,43.4898 h -1.350381 v 1.221974 l 2.214499,2.216604 h 1.515626 c 0.07789,1.095672 0.131565,2.196606 0.131565,3.311223 0,0.788336 -0.02,1.572463 -0.05999,2.351326 l -1.464054,1.602986 h -2.70813 l -4.554247,-4.5553 v -5.658339 h -1.230394 z" /></svg>
