<?xml version="1.0" encoding="UTF-8" standalone="no"?>
<svg
   xmlns:dc="http://purl.org/dc/elements/1.1/"
   xmlns:cc="http://creativecommons.org/ns#"
   xmlns:rdf="http://www.w3.org/1999/02/22-rdf-syntax-ns#"
   xmlns:svg="http://www.w3.org/2000/svg"
   xmlns="http://www.w3.org/2000/svg"
   height="100"
   width="100"
   id="svg8"
   xml:space="preserve"
   enable-background="new 0 0 100 100"
   viewBox="0 0 100 100"
   y="0px"
   x="0px"
   version="1.1"><metadata
     id="metadata14"><rdf:RDF><cc:Work
         rdf:about=""><dc:format>image/svg+xml</dc:format><dc:type
           rdf:resource="http://purl.org/dc/dcmitype/StillImage" /><dc:title></dc:title></cc:Work></rdf:RDF></metadata><defs
     id="defs12" /><path
     style="stroke-width:1.29594803"
     id="path2"
     d="m 49.71406,74.621805 c -7.813271,0 -15.099091,-3.85415 -19.487171,-10.305379 -7.301372,-10.734338 -4.508604,-25.405766 6.22703,-32.707138 3.922835,-2.668357 8.49494,-4.077053 13.219967,-4.077053 7.81327,0 15.097795,3.852854 19.487171,10.30538 3.536642,5.200639 4.836478,11.466548 3.659757,17.643037 -1.176721,6.17908 -4.687444,11.528754 -9.888084,15.0641 -3.921539,2.667061 -8.492347,4.077053 -13.21867,4.077053 z M 49.724428,96.5 c 1.07434,-0.0052 1.94133,-0.878653 1.936146,-1.951698 l -0.04665,-11.83071 c -0.0039,-1.073045 -0.916235,-1.915411 -1.951698,-1.936146 -1.074341,0.0052 -1.940034,0.878653 -1.936146,1.951698 l 0.04665,11.83071 C 47.77793,95.634307 48.647495,96.5 49.716652,96.5 c 0.0026,0 0.0052,0 0.0078,0 z m 0,-76.293759 c 1.07434,-0.0052 1.94133,-0.878653 1.936146,-1.951698 L 51.61392,6.4251292 c -0.0039,-1.071749 -0.874765,-1.9361464 -1.943922,-1.9361464 -0.0026,0 -0.0052,0 -0.0078,0 -1.074341,0.00389 -1.940034,0.8786528 -1.936146,1.9516978 l 0.04665,11.8294144 c 0.0052,1.070453 0.874765,1.936146 1.943922,1.936146 0.0026,0 0.0052,0 0.0078,0 z m 31.543376,63.523487 c 0.769793,-0.749058 0.78664,-1.978913 0.03758,-2.748706 l -8.251301,-8.476797 c -0.749058,-0.767201 -1.978913,-0.784048 -2.748706,-0.03499 -0.769793,0.747762 -0.786641,1.978913 -0.03758,2.748706 l 8.251302,8.474204 c 0.382304,0.392672 0.887724,0.588361 1.393144,0.588361 0.489868,0 0.978441,-0.182729 1.355562,-0.550778 z M 28.270007,28.850215 c 0.769793,-0.749058 0.784049,-1.978913 0.03499,-2.748706 l -8.251301,-8.476797 c -0.746466,-0.768497 -1.978912,-0.784048 -2.748705,-0.03629 -0.769794,0.747762 -0.784049,1.978913 -0.03499,2.748706 l 8.251301,8.4755 c 0.379713,0.392672 0.886429,0.588361 1.391849,0.588361 0.488572,0 0.97844,-0.184025 1.356857,-0.550778 z m 66.817787,23.781943 c 0.0324,-1.073045 -0.811264,-1.969841 -1.883013,-2.00224 L 81.381847,50.265757 c -1.091188,-0.0324 -1.971137,0.809967 -2.004832,1.883012 -0.0324,1.073045 0.811264,1.969841 1.883013,2.00224 l 11.822934,0.364161 c 0.02203,0.0013 0.04147,0.0013 0.06221,0.0013 1.04583,0 1.908931,-0.830702 1.942626,-1.884308 z M 18.839393,49.972872 c 0.0324,-1.073045 -0.809967,-1.971137 -1.883012,-2.004831 L 5.1334462,47.603879 c -1.1015558,-0.03369 -1.969841,0.809968 -2.0022397,1.883013 -0.032399,1.073045 0.8099675,1.969841 1.8830125,2.003535 l 11.822934,0.365458 c 0.02074,0 0.04017,0 0.06091,0 1.04583,0 1.908932,-0.831999 1.94133,-1.883013 z m 55.69596,-18.61111 8.758017,-7.951937 c 0.794417,-0.721843 0.855326,-1.951698 0.133483,-2.746114 -0.721843,-0.793121 -1.950402,-0.852734 -2.744818,-0.132187 l -8.758017,7.951937 c -0.794416,0.721843 -0.855326,1.950402 -0.133483,2.744818 0.383601,0.422479 0.909756,0.637607 1.438503,0.637607 0.466541,0.0013 0.933082,-0.165882 1.306315,-0.504124 z m -56.697728,51.049987 8.760609,-7.949346 c 0.794416,-0.721843 0.852734,-1.950402 0.132187,-2.746114 -0.721843,-0.79312 -1.949106,-0.85403 -2.746114,-0.133483 l -8.758017,7.950642 c -0.794416,0.721843 -0.855326,1.950402 -0.134779,2.746114 0.384897,0.422479 0.911052,0.63631 1.439799,0.63631 0.465245,0.0013 0.933082,-0.164585 1.306315,-0.504123 z" /></svg>
